<?xml version="1.0" encoding="UTF-8" standalone="no"?>
<svg
   xmlns:dc="http://purl.org/dc/elements/1.1/"
   xmlns:cc="http://creativecommons.org/ns#"
   xmlns:rdf="http://www.w3.org/1999/02/22-rdf-syntax-ns#"
   xmlns:svg="http://www.w3.org/2000/svg"
   xmlns="http://www.w3.org/2000/svg"
   xmlns:xlink="http://www.w3.org/1999/xlink"
   xmlns:sodipodi="http://sodipodi.sourceforge.net/DTD/sodipodi-0.dtd"
   xmlns:inkscape="http://www.inkscape.org/namespaces/inkscape"
   inkscape:version="1.0 (4035a4fb49, 2020-05-01)"
   id="svg8"
   version="1.1"
   viewBox="0 0 120 120"
   height="120mm"
   width="120mm">
  <defs
     id="defs2">
    <linearGradient
       id="linearGradient1051"
       inkscape:collect="always">
      <stop
         id="stop1047"
         offset="0"
         style="stop-color:#00b2b4;stop-opacity:1" />
      <stop
         id="stop1049"
         offset="1"
         style="stop-color:#186890;stop-opacity:1" />
    </linearGradient>
    <linearGradient
       id="linearGradient1043"
       inkscape:collect="always">
      <stop
         id="stop1039"
         offset="0"
         style="stop-color:#acf6cc;stop-opacity:0.66670716" />
      <stop
         id="stop1041"
         offset="1"
         style="stop-color:#ffe20b;stop-opacity:1" />
    </linearGradient>
    <radialGradient
       gradientUnits="userSpaceOnUse"
       gradientTransform="matrix(-1.419337,1.2123918,-0.5190986,-0.6076836,1541.7221,-106.21052)"
       r="267.06055"
       fy="332.62091"
       fx="565.8819"
       cy="332.62091"
       cx="565.8819"
       id="radialGradient1045"
       xlink:href="#linearGradient1043"
       inkscape:collect="always" />
    <radialGradient
       gradientTransform="matrix(1.6613588,1.332648,-0.95466809,1.1901765,48.757539,-80.184725)"
       gradientUnits="userSpaceOnUse"
       r="71.621094"
       fy="125.63318"
       fx="59.329197"
       cy="125.63318"
       cx="59.329197"
       id="radialGradient1053"
       xlink:href="#linearGradient1051"
       inkscape:collect="always" />
    <clipPath
       id="clipPath1108"
       clipPathUnits="userSpaceOnUse">
      <circle
         style="fill:none;fill-opacity:1;stroke:#9e0000;stroke-width:0.0989999;stroke-miterlimit:10.433;stroke-dasharray:none;stroke-opacity:1;stop-color:#000000"
         id="circle1110"
         cx="94.493881"
         cy="132.80135"
         r="70.409882" />
    </clipPath>
  </defs>
  <sodipodi:namedview
     inkscape:window-maximized="1"
     inkscape:window-y="23"
     inkscape:window-x="0"
     inkscape:window-height="2977"
     inkscape:window-width="4500"
     inkscape:pagecheckerboard="true"
     fit-margin-bottom="0"
     fit-margin-right="0"
     fit-margin-left="0"
     fit-margin-top="0"
     showgrid="false"
     inkscape:document-rotation="0"
     inkscape:current-layer="layer1"
     inkscape:document-units="mm"
     inkscape:cy="151.16774"
     inkscape:cx="269.62942"
     inkscape:zoom="1.979899"
     inkscape:pageshadow="2"
     inkscape:pageopacity="0.0"
     borderopacity="1.0"
     bordercolor="#666666"
     pagecolor="#ffffff"
     id="base" />
  <metadata
     id="metadata5">
    <rdf:RDF>
      <cc:Work
         rdf:about="">
        <dc:format>image/svg+xml</dc:format>
        <dc:type
           rdf:resource="http://purl.org/dc/dcmitype/StillImage" />
        <dc:title></dc:title>
      </cc:Work>
    </rdf:RDF>
  </metadata>
  <g
     transform="translate(-34.493881,-72.801346)"
     id="layer1"
     inkscape:groupmode="layer"
     inkscape:label="Layer 1">
    <g
       transform="matrix(0.85215312,0,0,0.85215312,13.970626,19.634265)"
       clip-path="url(#clipPath1108)"
       id="g1106">
      <circle
         style="fill:url(#radialGradient1053);fill-opacity:1;stroke:none;stroke-width:1;stroke-miterlimit:10.433;stroke-opacity:1;stop-color:#000000"
         id="path833"
         cx="94.493881"
         cy="132.80135"
         r="71.121094" />
      <path
         d="m 151.48842,86.215401 c -0.0297,0.025 -0.0513,0.04781 -0.0811,0.07286 -1.16015,0.975209 -2.43263,1.97789 -3.82716,3.008085 -1.39453,1.030192 -2.91101,2.088017 -4.55838,3.172931 -1.64736,1.084916 -3.42571,2.19738 -5.34437,3.336747 -1.91866,1.139364 -3.97726,2.305438 -6.18567,3.498992 -2.20841,1.193564 -4.56667,2.414284 -7.08329,3.661794 -2.51662,1.24749 -5.19187,2.52186 -8.03516,3.82302 -2.8433,1.30115 -5.85444,2.62917 -9.04286,3.98374 -3.18843,1.35454 -6.55435,2.73573 -10.10636,4.14341 -3.552015,1.40768 -7.290057,2.84203 -11.224123,4.30258 -3.93406,1.46055 -8.06364,2.94755 -12.398208,4.46071 -4.334571,1.51316 -8.874056,3.05231 -13.627592,4.61781 -4.753536,1.56549 -9.721308,3.15732 -14.912269,4.7749 -5.19099,1.61757 -10.605392,3.26106 -16.252237,4.93045 -1.613711,0.47705 -3.391255,0.97187 -5.043134,1.45314 a 71.121093,71.121093 0 0 0 25.300781,43.73996 71.121093,71.121093 0 0 0 39.573295,15.76338 71.121093,71.121093 0 0 0 5.324224,0.19999 71.121093,71.121093 0 0 0 58.765913,-31.06219 c -1.52167,0.72847 -2.9771,1.44602 -4.60747,2.19212 -2.84329,1.30115 -5.85443,2.62918 -9.04286,3.98374 -3.18842,1.35454 -6.55434,2.73573 -10.10636,4.14341 -3.55201,1.40768 -7.29005,2.84203 -11.22412,4.30258 -3.38853,1.25802 -6.99084,2.54439 -10.67686,3.84162 2.5795,-1.77158 5.10187,-3.5171 7.55561,-5.23223 4.45641,-3.11498 8.7077,-6.13749 12.76304,-9.07025 4.05535,-2.93276 7.91442,-5.7759 11.58637,-8.53178 3.67196,-2.75588 7.15669,-5.42447 10.46293,-8.00881 3.30624,-2.58435 6.434,-5.08423 9.39219,-7.50239 1.5162,-1.2394 2.86397,-2.39728 4.29225,-3.59409 a 71.121093,71.121093 0 0 0 1.9606,-16.58297 71.121093,71.121093 0 0 0 -0.44339,-7.92613 c -0.40958,0.31443 -0.75474,0.61407 -1.18752,0.93379 -1.39453,1.03019 -2.91102,2.08802 -4.55838,3.17293 -1.64736,1.08491 -3.42572,2.19738 -5.34437,3.33675 -1.91866,1.13938 -3.97725,2.30544 -6.18567,3.49901 -2.20841,1.19356 -4.56666,2.4143 -7.08329,3.6618 -2.51662,1.24749 -5.19188,2.52187 -8.03517,3.82302 -2.8433,1.30116 -5.85444,2.62919 -9.04285,3.98374 -3.18843,1.35454 -6.55435,2.73573 -10.10636,4.14341 -3.55202,1.40769 -7.29005,2.84203 -11.22413,4.30258 -3.252351,1.20747 -6.723267,2.4441 -10.24898,3.68763 3.819456,-2.68139 7.494813,-5.29792 11.01328,-7.84242 4.05535,-2.93275 7.91493,-5.7759 11.58689,-8.53177 3.67196,-2.75588 7.15669,-5.42447 10.46292,-8.00882 3.30624,-2.58434 6.434,-5.08423 9.39219,-7.50238 2.9582,-2.41816 5.74635,-4.75467 8.37417,-7.01198 2.62781,-2.2573 5.09529,-4.43578 7.4104,-6.53758 2.31511,-2.10181 4.47824,-4.12706 6.49831,-6.0787 1.08049,-1.04389 2.01639,-2.0127 3.01635,-3.0148 a 71.121093,71.121093 0 0 0 -7.89202,-13.913343 z"
         style="fill:#000000;fill-opacity:0.368405;stroke:none;stroke-width:1;stroke-miterlimit:10.433;stroke-opacity:1;stop-color:#000000"
         id="path833-9-1-0" />
      <path
         id="path833-9-1"
         style="fill:url(#radialGradient1045);fill-opacity:1;stroke:none;stroke-width:3.77953;stroke-miterlimit:10.433;stroke-opacity:1;stop-color:#000000"
         d="m 574.55469,343.85352 c -0.11225,0.0945 -0.19401,0.18071 -0.30664,0.27539 -4.38482,3.68583 -9.19418,7.47549 -14.46485,11.36914 -5.27066,3.89364 -11.00223,7.89172 -17.22851,11.99218 -6.22625,4.10047 -12.94759,8.30506 -20.19922,12.61133 -7.25163,4.30628 -15.03216,8.71352 -23.37891,13.22461 -8.34674,4.51113 -17.25985,9.12488 -26.77148,13.83985 -9.51164,4.71492 -19.62285,9.53144 -30.36914,14.44921 -10.74633,4.91774 -22.12702,9.93705 -34.17774,15.05665 -12.05076,5.11954 -24.77233,10.33979 -38.19726,15.66015 -13.42494,5.32037 -27.55297,10.74153 -42.42188,16.26172 -14.86889,5.52019 -30.47675,11.14036 -46.85937,16.85937 -16.38263,5.71903 -33.53974,11.53628 -51.50586,17.45313 -17.96612,5.91681 -36.74195,11.9332 -56.36133,18.04687 -19.61949,6.11366 -40.08337,12.32527 -61.42578,18.63477 -6.09895,1.80302 -12.817226,3.67321 -19.060548,5.49219 a 268.80413,268.80413 0 0 0 95.624998,165.3164 268.80413,268.80413 0 0 0 149.56836,59.57813 268.80413,268.80413 0 0 0 20.12305,0.75586 A 268.80413,268.80413 0 0 0 579.25,653.33008 c -5.7512,2.75327 -11.25202,5.46527 -17.41406,8.28515 -10.74631,4.91775 -22.127,9.93708 -34.17774,15.05665 -12.05074,5.11955 -24.77233,10.33977 -38.19726,15.66015 -13.42494,5.32038 -27.55298,10.74152 -42.42188,16.26172 -12.80706,4.75473 -26.42209,9.6166 -40.35351,14.51953 9.74928,-6.69574 19.28265,-13.29299 28.55664,-19.77539 16.84311,-11.77313 32.91098,-23.19682 48.23828,-34.28125 15.3273,-11.08443 29.91275,-21.83018 43.79101,-32.24609 13.87827,-10.41592 27.0489,-20.50193 39.54493,-30.26953 12.49602,-9.76761 24.31747,-19.21599 35.49804,-28.35547 5.73052,-4.68438 10.82444,-9.06061 16.22266,-13.58399 a 268.80413,268.80413 0 0 0 7.41016,-62.67578 268.80413,268.80413 0 0 0 -1.67579,-29.95703 c -1.54805,1.1884 -2.85257,2.32091 -4.48828,3.5293 -5.27066,3.89363 -11.00227,7.8917 -17.22851,11.99218 -6.22625,4.10045 -12.94763,8.30505 -20.19922,12.61133 -7.25163,4.30632 -15.03212,8.71348 -23.37891,13.22461 -8.34674,4.51109 -17.25981,9.12492 -26.77148,13.83985 -9.51164,4.71492 -19.62285,9.53148 -30.36914,14.44921 -10.74633,4.91777 -22.12702,9.93709 -34.17774,15.05665 -12.05076,5.11954 -24.77234,10.33979 -38.19726,15.66015 -13.42496,5.3204 -27.55295,10.74153 -42.42188,16.26172 -12.29238,4.56367 -25.4108,9.23754 -38.73633,13.9375 14.43574,-10.1344 28.32685,-20.02363 41.625,-29.64063 15.3273,-11.08441 29.91471,-21.83017 43.79297,-32.24609 13.87827,-10.41592 27.04891,-20.50193 39.54492,-30.26953 12.49603,-9.7676 24.31748,-19.21599 35.49805,-28.35547 11.18057,-9.13948 21.71849,-17.97039 31.65039,-26.50195 9.9319,-8.53156 19.25779,-16.76516 28.00782,-24.70899 8.75001,-7.94383 16.92562,-15.59831 24.56054,-22.97461 4.08374,-3.9454 7.62101,-7.60705 11.40039,-11.39453 a 268.80413,268.80413 0 0 0 -29.82812,-52.58593 z"
         transform="scale(0.26458333)" />
    </g>
  </g>
</svg>
